<?xml version="1.0" encoding="utf-8"?>
<!-- Generator: Adobe Illustrator 24.3.0, SVG Export Plug-In . SVG Version: 6.00 Build 0)  -->
<svg version="1.1" id="Capa_1" xmlns="http://www.w3.org/2000/svg" xmlns:xlink="http://www.w3.org/1999/xlink" x="0px" y="0px"
	 viewBox="0 0 480 480" style="enable-background:new 0 0 480 480;" xml:space="preserve">
<style type="text/css">
	.st0{fill:#FFFFFF;}
</style>
<g>
	<g>
		<path class="st0" d="M472,4.5H8c-4.4,0-8,3.6-8,8v320c0,4.4,3.6,8,8,8h144.5c0.2,2.7,0.6,5.3,1.1,7.9l-43.9,52.3
			c-2.8,3.4-2.4,8.4,1,11.3c1,0.8,2.1,1.4,3.3,1.7l48.3,11.5l19.8,45.6c1.8,4.1,6.5,5.9,10.5,4.2c1.1-0.5,2.2-1.2,3-2.2l43.8-52.2
			c0.2,0,0.5,0,0.7,0s0.5,0,0.7,0l43.8,52.2c2.8,3.4,7.9,3.8,11.3,1c1-0.8,1.7-1.8,2.2-3l19.8-45.6l48.3-11.5c4.3-1,7-5.3,5.9-9.6
			c-0.3-1.2-0.9-2.3-1.7-3.3l-43.9-52.3c0.5-2.6,0.9-5.2,1.1-7.9H472c4.4,0,8-3.6,8-8v-320C480,8,476.4,4.5,472,4.5z M191.5,452.5
			l-16.2-37.4c-1-2.3-3-4-5.5-4.6l-39.6-9.5l28.7-34.2c0.2,0.4,0.4,0.7,0.5,1c1,2.4,2.2,4.7,3.4,6.9c0.5,0.9,1.1,1.9,1.6,2.8
			c1.1,1.8,2.3,3.6,3.5,5.4c0.9,1.2,1.8,2.4,2.7,3.6c1.1,1.4,2.2,2.7,3.3,4s2.5,2.8,3.8,4.1c1,1,2,1.9,3,2.9
			c0.9,0.8,1.6,1.6,2.5,2.4c0.9,0.8,1.8,1.3,2.6,1.9c0.4,0.3,0.7,0.7,1.1,1c0.7,0.5,1.5,1,2.2,1.5c1.2,0.8,2.3,1.7,3.5,2.4
			c2.3,1.5,4.6,2.8,7,4c0.9,0.5,1.8,0.9,2.8,1.3c2.1,1,4.3,1.9,6.4,2.7c0.6,0.2,1.2,0.5,1.9,0.7c3,1.1,6.1,2,9.2,2.7l0.1,0
			L191.5,452.5z M255,402.8c-3.7,0.8-7.4,1.3-11.1,1.5h-0.1c-1.3,0.1-2.5,0.2-3.8,0.2s-2.5-0.1-3.8-0.2h-0.1
			c-3.7-0.2-7.5-0.7-11.1-1.5l-0.7-0.1c-1.4-0.3-2.8-0.7-4.2-1.1c-0.6-0.2-1.2-0.3-1.8-0.5c-1-0.3-2-0.7-3-1c-1-0.4-1.9-0.7-2.9-1.1
			c-0.6-0.2-1.2-0.5-1.7-0.8c-1.3-0.6-2.6-1.2-3.9-1.9l-0.6-0.4c-3.3-1.8-6.5-3.8-9.4-6c-1.7-1.2-3.2-2.6-4.7-4
			c-1.8-1.6-3.5-3.3-5.1-5c-0.6-0.7-1.3-1.3-1.9-2.1c-2.2-2.6-4.3-5.4-6.1-8.3c-0.3-0.4-0.5-0.9-0.8-1.3c-1.7-2.8-3.2-5.8-4.5-8.9
			c-0.1-0.3-0.2-0.5-0.3-0.8c-1.4-3.5-2.6-7.1-3.4-10.8c0-0.1-0.1-0.3-0.2-0.4c-1.2-5.2-1.7-10.5-1.7-15.8c0-39.8,32.2-72,72-72
			c39.8,0,72,32.2,72,72c0,5.4-0.6,10.8-1.8,16c0,0.1-0.1,0.3-0.2,0.4c-0.9,3.7-2,7.3-3.4,10.8c-0.1,0.3-0.2,0.6-0.4,0.8
			c-1.3,3-2.8,6-4.5,8.8c-0.3,0.4-0.5,0.9-0.8,1.4c-1.8,2.9-3.9,5.7-6.1,8.3c-0.6,0.7-1.3,1.3-1.9,2c-1.6,1.8-3.4,3.5-5.2,5.1
			c-1.5,1.4-3,2.7-4.7,4c-1.7,1.2-3.1,2.3-4.8,3.3l-0.1,0.1c-1.4,0.9-2.9,1.8-4.4,2.6c-0.3,0.2-0.6,0.3-0.9,0.5
			c-1.2,0.6-2.4,1.2-3.7,1.8c-0.6,0.3-1.3,0.6-1.9,0.8c-0.9,0.4-1.8,0.7-2.7,1s-2,0.8-3.1,1.1c-0.6,0.2-1.1,0.3-1.7,0.5
			c-1.4,0.4-2.8,0.8-4.3,1.1L255,402.8z M349.7,401l-39.6,9.5c-2.4,0.6-4.5,2.3-5.5,4.6l-16.2,37.4l-28.7-34.2h0.1
			c3.1-0.7,6.2-1.6,9.3-2.7c0.6-0.2,1.2-0.5,1.8-0.7c2.2-0.8,4.4-1.8,6.6-2.8c0.9-0.4,1.8-0.8,2.6-1.2c2.4-1.2,4.8-2.6,7.1-4.1
			c1.1-0.7,2.2-1.5,3.3-2.3c0.8-0.6,1.6-1.1,2.4-1.6c0.4-0.3,0.8-0.7,1.2-1c0.8-0.7,1.7-1.2,2.5-1.9s1.6-1.6,2.5-2.4
			c1.1-1,2.1-1.9,3.1-2.9c1.3-1.3,2.6-2.7,3.8-4.1c1.2-1.3,2.3-2.6,3.3-4c0.9-1.2,1.8-2.4,2.7-3.6c1.2-1.7,2.4-3.5,3.5-5.4
			c0.6-0.9,1.1-1.9,1.6-2.8c1.2-2.3,2.4-4.6,3.4-6.9c0.1-0.4,0.4-0.7,0.5-1.1L349.7,401z M464,324.5H327.6
			c-4.3-48.4-47.1-84.1-95.5-79.7c-42.4,3.8-75.9,37.4-79.7,79.7H16v-304h448V324.5z"/>
	</g>
</g>
<g>
	<g>
		<path class="st0" d="M40,36.5c-4.4,0-8,3.6-8,8v32h16v-24h24v-16C72,36.5,40,36.5,40,36.5z"/>
	</g>
</g>
<g>
	<g>
		<path class="st0" d="M440,36.5h-32v16h24v24h16v-32C448,40,444.4,36.5,440,36.5z"/>
	</g>
</g>
<g>
	<g>
		<path class="st0" d="M432,268.5v24h-24v16h32c4.4,0,8-3.6,8-8v-32H432z"/>
	</g>
</g>
<g>
	<g>
		<path class="st0" d="M48,292.5v-24H32v32c0,4.4,3.6,8,8,8h32v-16H48z"/>
	</g>
</g>
<g>
	<g>
		<rect x="144" y="92.5" class="st0" width="192" height="16"/>
	</g>
</g>
<g>
	<g>
		<rect x="96" y="140.5" class="st0" width="288" height="16"/>
	</g>
</g>
<g>
	<g>
		<path class="st0" d="M240,276.5c-30.9,0-56,25.1-56,56c0,30.9,25.1,56,56,56c30.9,0,56-25.1,56-56S270.9,276.5,240,276.5z
			 M240,372.5c-22.1,0-40-17.9-40-40c0-22.1,17.9-40,40-40c22.1,0,40,17.9,40,40S262.1,372.5,240,372.5z"/>
	</g>
</g>
</svg>
