<svg width="79" height="83" viewBox="0 0 79 83" fill="none" xmlns="http://www.w3.org/2000/svg">
<rect width="79" height="83" transform="matrix(-1 0 0 1 79 0)" fill="white"/>
<path d="M52.6667 75.0951C38.1232 75.0951 26.3333 63.2982 26.3333 48.7459C26.3333 34.1937 38.1232 22.3967 52.6667 22.3967C67.2102 22.3967 79 34.1937 79 48.7459C79 63.2982 67.2102 75.0951 52.6667 75.0951Z" fill="#E9EAEB"/>
<path d="M28.9669 40.8412C22.4223 40.8412 17.1169 35.5326 17.1169 28.9841C17.1169 22.4356 22.4223 17.127 28.9669 17.127C35.5115 17.127 40.8169 22.4356 40.8169 28.9841C40.8169 35.5326 35.5115 40.8412 28.9669 40.8412Z" fill="#DD4D51" stroke="#404041" stroke-width="2" stroke-miterlimit="10"/>
<path d="M31.2048 33.3318C36.6032 33.3318 41.8698 34.781 46.0832 36.8889V39.2604C49.1115 35.0445 56.7482 32.9365 57.9332 34.254C58.7232 35.1762 56.3532 39.2604 54.6415 42.1588C57.0115 43.7397 58.8548 45.9794 60.0398 48.6143C61.4882 49.2731 63.1998 49.6683 65.8332 49.6683C68.0715 49.6683 67.5448 55.8604 65.4382 59.8127C63.4632 63.2381 51.3498 70.6159 50.0332 70.8794V81.6826H43.4498L40.9482 75.754C37.9198 76.6762 33.7065 77.7302 30.2832 77.7302C26.4648 77.7302 21.9882 76.5445 18.3015 75.3588L15.9315 81.6826H9.6115L8.0315 69.2985C3.94984 65.4778 1.57984 60.6032 1.57984 55.2016C1.44817 43.081 16.0632 33.3318 31.2048 33.3318Z" fill="white" stroke="#404041" stroke-width="2" stroke-miterlimit="10"/>
<path d="M32.9165 5.26978V11.8571" stroke="#404041" stroke-width="2" stroke-miterlimit="10"/>
<path d="M32.9165 0V2.63492" stroke="#404041" stroke-width="2" stroke-miterlimit="10"/>
<path d="M49.1117 54.8062C47.0756 54.8062 45.425 53.1547 45.425 51.1174C45.425 49.08 47.0756 47.4285 49.1117 47.4285C51.1478 47.4285 52.7983 49.08 52.7983 51.1174C52.7983 53.1547 51.1478 54.8062 49.1117 54.8062Z" fill="white" stroke="#404041" stroke-width="2" stroke-miterlimit="10"/>
<path d="M23.7002 6.5874V27.6668" stroke="#404041" stroke-width="2" stroke-miterlimit="10"/>
<path d="M26.4648 40.8413C15.9315 40.8413 7.37318 48.2191 7.37318 57.1778" stroke="#404041" stroke-width="2" stroke-miterlimit="10"/>
<path d="M47.3999 11.8572V19.7619" stroke="#BCC0C4" stroke-width="2" stroke-miterlimit="10"/>
<path d="M43.4501 15.8096H51.3501" stroke="#BCC0C4" stroke-width="2" stroke-miterlimit="10"/>
<path d="M3.94971 27.6667V35.5715" stroke="#BCC0C4" stroke-width="2" stroke-miterlimit="10"/>
<path d="M-9.94205e-05 31.6191H7.8999" stroke="#BCC0C4" stroke-width="2" stroke-miterlimit="10"/>
<path d="M7.9001 11.8572C5.71858 11.8572 3.9501 10.0876 3.9501 7.90477C3.9501 5.72193 5.71858 3.95239 7.9001 3.95239C10.0816 3.95239 11.8501 5.72193 11.8501 7.90477C11.8501 10.0876 10.0816 11.8572 7.9001 11.8572Z" stroke="#BCC0C4" stroke-width="2" stroke-miterlimit="10"/>
</svg>
