<svg width="93" height="74" viewBox="0 0 93 74" fill="none" xmlns="http://www.w3.org/2000/svg">
<rect width="93" height="74" fill="white"/>
<path d="M3.18705 33.8203C2.02817 37.8672 1.44873 42.0586 1.44873 46.25C1.44873 56.2227 4.63565 65.3281 10.1403 72.8438" stroke="#BCC0C4" stroke-width="2" stroke-miterlimit="10"/>
<path d="M43.313 1.44531C26.2195 2.60156 11.7335 13.2969 5.21484 28.3281" stroke="#BCC0C4" stroke-width="2" stroke-miterlimit="10"/>
<path d="M89.8131 33.8203C90.972 37.7227 91.5515 41.9141 91.5515 46.25C91.5515 56.2227 88.3645 65.3281 82.8599 72.8438" stroke="#BCC0C4" stroke-width="2" stroke-miterlimit="10"/>
<path d="M49.687 1.44531C66.7805 2.60156 81.4113 13.2969 87.93 28.3281" stroke="#BCC0C4" stroke-width="2" stroke-miterlimit="10"/>
<path d="M71.7059 71.9766C78.3694 65.4727 82.5703 56.3672 82.5703 46.3945C82.5703 26.5937 66.4909 10.6953 46.6451 10.6953C26.9442 10.6953 10.8647 26.5937 10.8647 46.3945C10.8647 56.3672 15.0657 65.4727 21.7292 71.9766" stroke="#404041" stroke-width="2" stroke-miterlimit="10"/>
<path d="M46.3555 10.4062V16.1875" stroke="#404041" stroke-width="2" stroke-miterlimit="10"/>
<path d="M24.7715 18.3555L28.2481 22.8359" stroke="#404041" stroke-width="2" stroke-miterlimit="10"/>
<path d="M12.1685 37.8672L17.6731 39.168" stroke="#404041" stroke-width="2" stroke-miterlimit="10"/>
<path d="M14.1963 60.9922L19.4112 58.6797" stroke="#404041" stroke-width="2" stroke-miterlimit="10"/>
<path d="M68.6637 18.3555L65.187 22.8359" stroke="#404041" stroke-width="2" stroke-miterlimit="10"/>
<path d="M81.2664 37.8672L75.7617 39.168" stroke="#404041" stroke-width="2" stroke-miterlimit="10"/>
<path d="M79.0935 60.9922L74.0234 58.6797" stroke="#404041" stroke-width="2" stroke-miterlimit="10"/>
<path d="M47.8041 74C57.4045 74 65.1872 66.2349 65.1872 56.6562C65.1872 47.0776 57.4045 39.3125 47.8041 39.3125C38.2036 39.3125 30.4209 47.0776 30.4209 56.6562C30.4209 66.2349 38.2036 74 47.8041 74Z" fill="#E9EAEB"/>
<path d="M68.3738 40.1797L49.6869 50.875C47.6589 50.1523 45.3411 50.4414 43.6028 51.8867C40.8504 54.0547 40.4159 58.1016 42.5888 60.9922C44.7617 63.7383 48.8177 64.1719 51.5701 62.0039C53.3084 60.5586 54.1776 58.3906 54.0327 56.3672L69.0981 41.1914L68.3738 40.1797Z" fill="white" stroke="#404041" stroke-width="2" stroke-miterlimit="10"/>
<path d="M63.7387 35.4102C57.3648 26.8828 45.1966 25.1485 36.6499 31.5078C33.463 33.8203 31.2901 37 29.9863 40.6133L30.5658 41.1914C31.2901 40.4688 32.0144 39.6016 33.0284 39.0235C40.2714 33.5313 50.5564 34.2539 55.6265 41.4805L64.1732 36.4219C64.0284 35.9883 63.8835 35.6992 63.7387 35.4102Z" fill="#DD4D51" stroke="#404041" stroke-width="2" stroke-miterlimit="10"/>
</svg>
