<svg width="90" height="72" viewBox="0 0 90 72" fill="none" xmlns="http://www.w3.org/2000/svg">
<rect width="90" height="72" fill="white"/>
<path d="M52.0312 55.7824C62.9044 55.7824 71.7188 47.0193 71.7188 36.2095C71.7188 25.3998 62.9044 16.6367 52.0312 16.6367C41.1581 16.6367 32.3438 25.3998 32.3438 36.2095C32.3438 47.0193 41.1581 55.7824 52.0312 55.7824Z" fill="#E9EAEB"/>
<path d="M5.625 20.8311H15.8906L21.6562 29.2194H25.3125" stroke="#404041" stroke-width="2" stroke-miterlimit="10"/>
<path d="M5.625 36.2097H30.9375" stroke="#404041" stroke-width="2" stroke-miterlimit="10"/>
<path d="M5.625 25.0251C7.95495 25.0251 9.84375 23.1473 9.84375 20.8309C9.84375 18.5145 7.95495 16.6367 5.625 16.6367C3.29505 16.6367 1.40625 18.5145 1.40625 20.8309C1.40625 23.1473 3.29505 25.0251 5.625 25.0251Z" fill="#DD4D51" stroke="#404041" stroke-width="2" stroke-miterlimit="10"/>
<path d="M5.625 51.5883H15.8906L21.5156 43.2H30.9375" stroke="#404041" stroke-width="2" stroke-miterlimit="10"/>
<path d="M5.625 55.7824C7.95495 55.7824 9.84375 53.9046 9.84375 51.5882C9.84375 49.2718 7.95495 47.394 5.625 47.394C3.29505 47.394 1.40625 49.2718 1.40625 51.5882C1.40625 53.9046 3.29505 55.7824 5.625 55.7824Z" fill="#DD4D51" stroke="#404041" stroke-width="2" stroke-miterlimit="10"/>
<path d="M5.625 40.4037C7.95495 40.4037 9.84375 38.5259 9.84375 36.2096C9.84375 33.8932 7.95495 32.0154 5.625 32.0154C3.29505 32.0154 1.40625 33.8932 1.40625 36.2096C1.40625 38.5259 3.29505 40.4037 5.625 40.4037Z" fill="#DD4D51" stroke="#404041" stroke-width="2" stroke-miterlimit="10"/>
<path d="M18.8438 64.1708L28.5469 50.1902H39.375" stroke="#404041" stroke-width="2" stroke-miterlimit="10"/>
<path d="M18.2812 68.3649C20.6112 68.3649 22.5 66.4871 22.5 64.1707C22.5 61.8544 20.6112 59.9766 18.2812 59.9766C15.9513 59.9766 14.0625 61.8544 14.0625 64.1707C14.0625 66.4871 15.9513 68.3649 18.2812 68.3649Z" fill="#DD4D51" stroke="#404041" stroke-width="2" stroke-miterlimit="10"/>
<path d="M18.8438 11.0447L28.5469 22.2291H39.375" stroke="#404041" stroke-width="2" stroke-miterlimit="10"/>
<path d="M18.2812 15.2387C20.6112 15.2387 22.5 13.3609 22.5 11.0445C22.5 8.72814 20.6112 6.85034 18.2812 6.85034C15.9513 6.85034 14.0625 8.72814 14.0625 11.0445C14.0625 13.3609 15.9513 15.2387 18.2812 15.2387Z" fill="#DD4D51" stroke="#404041" stroke-width="2" stroke-miterlimit="10"/>
<path d="M39.375 36.2097H30.9375" stroke="#2A5082" stroke-width="2" stroke-miterlimit="10"/>
<path d="M30.9375 43.1999H54.8438V47.3941L71.0156 36.4892L54.8438 25.0251V29.2193H33.75" stroke="#404041" stroke-width="2" stroke-miterlimit="10"/>
<path d="M47.8125 36.2097H50.625" stroke="#404041" stroke-width="2" stroke-miterlimit="10"/>
<path d="M42.1875 36.2097H45" stroke="#404041" stroke-width="2" stroke-miterlimit="10"/>
<path d="M42.1875 22.229H45" stroke="#404041" stroke-width="2" stroke-miterlimit="10"/>
<path d="M42.1875 50.1902H45" stroke="#404041" stroke-width="2" stroke-miterlimit="10"/>
<path d="M53.4375 70.6017C44.4375 70.6017 36.2812 67.2464 30.0938 61.7939" stroke="#BCC0C4" stroke-width="2" stroke-miterlimit="10"/>
<path d="M59.9062 1.39795C76.2188 4.33387 88.5938 18.5941 88.5938 35.6504" stroke="#BCC0C4" stroke-width="2" stroke-miterlimit="10"/>
<path d="M86.7656 48.5125C83.8125 56.062 78.3281 62.493 71.2969 66.5474" stroke="#BCC0C4" stroke-width="2" stroke-miterlimit="10"/>
<path d="M32.9062 15.6582C38.1094 10.9048 44.8594 8.10864 52.4531 8.10864C68.3438 8.10864 81.2813 20.9708 81.2813 36.7688C81.2813 49.0717 73.4063 59.5572 62.4375 63.6116" stroke="#BCC0C4" stroke-width="2" stroke-miterlimit="10"/>
<path d="M30.9375 29.2192H28.125" stroke="#404041" stroke-width="2" stroke-miterlimit="10"/>
</svg>
