<svg width="26" height="22" viewBox="0 0 26 22" fill="none" xmlns="http://www.w3.org/2000/svg">
    <path d="M19.244 19.9514C19.244 20.4858 19.4158 20.9312 19.8454 21.3765C20.189 21.7328 20.7045 22 21.2199 22C21.7354 22 22.1649 21.8219 22.5945 21.3765C22.9381 21.0202 23.1959 20.4858 23.1959 19.9514C23.1959 19.417 23.024 18.9717 22.5945 18.5263C22.2509 18.17 21.7354 17.9028 21.2199 17.9028C20.7045 17.9028 20.2749 18.081 19.8454 18.5263C19.4158 18.9717 19.244 19.417 19.244 19.9514Z" fill="#DD4D51"/>
    <path d="M24.7423 2.31579C24.5704 2.13765 24.3127 2.04858 24.055 2.04858H6.01375C6.01375 1.95951 6.01375 1.78138 5.92783 1.60324C5.92783 1.4251 5.84192 1.24696 5.84192 1.15789C5.84192 1.06883 5.75601 0.890688 5.75601 0.712551C5.6701 0.534413 5.58419 0.445344 5.58419 0.356275C5.49828 0.267206 5.41237 0.178138 5.24055 0.0890688C5.15464 0 4.98282 0 4.811 0H0.945017C0.687285 0 0.515464 0.0890688 0.257732 0.267206C0.0859107 0.534413 0 0.712551 0 0.979757C0 1.24696 0.0859107 1.51417 0.257732 1.69231C0.429553 1.87045 0.687285 1.95951 0.945017 1.95951H4.0378L6.70103 14.7854C6.70103 14.7854 6.61512 15.0526 6.35739 15.4089C6.18557 15.7652 6.01375 16.0324 5.92783 16.2996C5.84192 16.5668 5.75601 16.7449 5.75601 16.9231C5.75601 17.1903 5.84192 17.4575 6.01375 17.6356C6.18557 17.8138 6.4433 17.9028 6.70103 17.9028H22.079C22.3368 17.9028 22.5945 17.8138 22.7663 17.6356C22.9381 17.4575 23.0241 17.1903 23.0241 16.9231C23.0241 16.6559 22.9381 16.3887 22.7663 16.2105C22.5945 16.0324 22.3368 15.9433 22.079 15.9433H8.33333C8.59107 15.4089 8.67698 15.1417 8.67698 14.9636C8.67698 14.8745 8.67698 14.7854 8.67698 14.6073C8.67698 14.5182 8.59107 14.3401 8.59107 14.1619C8.59107 13.9838 8.50515 13.8947 8.50515 13.8057L24.2268 11.9352C24.4845 11.9352 24.6564 11.7571 24.8282 11.5789C25 11.4008 25.0859 11.1336 25.0859 10.9555V2.93927C25 2.76113 24.9141 2.49393 24.7423 2.31579Z" fill="#DD4D51"/>
    <path d="M5.75602 19.9514C5.75602 20.4858 5.92784 20.9312 6.3574 21.3765C6.70104 21.7328 7.2165 22 7.73197 22C8.24743 22 8.67698 21.8219 9.10654 21.3765C9.45018 21.0202 9.70791 20.4858 9.70791 19.9514C9.70791 19.417 9.53609 18.9717 9.10654 18.5263C8.76289 18.17 8.24743 17.9028 7.73197 17.9028C7.2165 17.9028 6.78695 18.081 6.3574 18.5263C5.92784 18.9717 5.75602 19.417 5.75602 19.9514Z" fill="#DD4D51"/>
</svg>
