<svg width="32" height="31" viewBox="0 0 32 31" fill="none" xmlns="http://www.w3.org/2000/svg">
    <path d="M22 21L25.1034 31L32 24.1034L22 21Z" fill="black"/>
    <path d="M22.2277 25.8416C20.1485 27.2277 17.6733 28.0198 15 28.0198C7.82178 28.0198 1.9802 22.1782 1.9802 15C1.9802 7.82178 7.82178 1.9802 15 1.9802C22.1782 1.9802 28.0198 7.82178 28.0198 15C28.0198 17.0297 27.5743 18.9109 26.7327 20.5941L28.6634 21.1881C29.5049 19.3069 30 17.1782 30 15C30 6.73267 23.2673 0 15 0C6.73267 0 0 6.73267 0 15C0 23.2673 6.73267 30 15 30C17.8713 30 20.5446 29.2079 22.8218 27.7723L22.2277 25.8416Z" fill="#D94347"/>
</svg>
