<svg width="21" height="26" viewBox="0 0 21 26" fill="none" xmlns="http://www.w3.org/2000/svg">
    <path d="M9.64142 0.00628479C4.64142 0.206285 0.541421 4.10628 0.0414214 9.00628C-0.0585786 10.0063 0.0414213 10.9063 0.141421 11.9063C0.141421 11.9063 0.141421 12.0063 0.241421 12.2063C0.441421 12.9063 0.641421 13.6063 0.941421 14.2063C2.04142 16.9063 4.54142 20.9063 9.94142 25.4063C10.0414 25.4063 10.0414 25.5063 10.0414 25.5063C10.0414 25.5063 10.1414 25.5063 10.1414 25.4063C15.5414 20.9063 17.9414 16.9063 19.0414 14.2063C19.3414 13.5063 19.5414 12.9063 19.7414 12.2063C19.7414 12.0063 19.8414 11.9063 19.8414 11.9063C19.9414 11.3063 20.0414 10.6063 20.0414 10.0063C20.0414 4.40628 15.3414 -0.193715 9.64142 0.00628479ZM10.0414 14.6063C7.54142 14.6063 5.54142 12.6063 5.54142 10.1063C5.54142 7.60628 7.54142 5.60629 10.0414 5.60629C12.5414 5.60629 14.5414 7.60628 14.5414 10.1063C14.5414 12.6063 12.5414 14.6063 10.0414 14.6063Z" fill="#DD4D51"/>
</svg>
