<svg width="266" height="58" viewBox="0 0 266 58" fill="none" xmlns="http://www.w3.org/2000/svg">
    <path d="M132.017 15.7161H149.819V37.9806H145.321V19.4581H136.608V37.9806H132.11V15.7161H132.017Z" fill="black"/>
    <path d="M174.554 37.9806H169.588L167.621 32.929H158.72L156.846 37.9806H152.067L160.781 15.7161H165.559L174.554 37.9806ZM166.215 29.1871L163.123 20.9548L160.125 29.1871H166.215Z" fill="black"/>
    <path d="M176.99 15.7161H181.488V25.1645C182.518 25.071 183.174 24.7903 183.549 24.4161C183.924 24.0419 184.486 22.8258 185.235 20.9548C186.172 18.5226 187.109 17.0258 188.046 16.4645C188.983 15.9032 190.482 15.6226 192.544 15.6226C192.637 15.6226 192.825 15.6226 193.199 15.6226V18.9903H192.544C191.607 18.9903 190.951 19.0839 190.482 19.3645C190.014 19.5516 189.733 19.9258 189.452 20.3936C189.171 20.8613 188.796 21.7968 188.234 23.2936C187.952 24.0419 187.671 24.6968 187.297 25.2581C187.016 25.8194 186.453 26.2871 185.61 26.7548C186.641 27.0355 187.484 27.5968 188.14 28.4387C188.796 29.2807 189.545 30.4968 190.295 32.0871L193.387 38.1677H188.046L185.423 32.3677C185.423 32.2742 185.329 32.0871 185.142 31.9C185.048 31.8065 184.861 31.4323 184.579 30.871C184.017 29.7484 183.549 29.0936 183.174 28.8129C182.799 28.5323 182.237 28.4387 181.488 28.3452V38.0742H176.99V15.7161Z" fill="black"/>
    <path d="M247.261 48.8323C243.326 51.4516 238.641 52.9484 233.582 52.9484C219.996 52.9484 208.94 41.9097 208.94 28.3452C208.94 14.7806 219.996 3.74194 233.582 3.74194C247.168 3.74194 258.224 14.7806 258.224 28.3452C258.224 32.1806 257.38 35.7355 255.788 38.9161L259.442 40.0387C261.035 36.4839 261.972 32.4613 261.972 28.3452C261.972 12.7226 249.229 0 233.582 0C217.935 0 205.192 12.7226 205.192 28.3452C205.192 43.9677 217.935 56.6903 233.582 56.6903C239.016 56.6903 244.076 55.1935 248.386 52.4806L247.261 48.8323Z" fill="#D94347"/>
    <path d="M246.979 39.0097L252.882 58L266 44.9032L246.979 39.0097Z" fill="black"/>
    <path d="M16.4903 28.8129H22.5805L19.4886 20.5806L16.4903 28.8129ZM59.9648 28.8129H66.0549L62.963 20.5806L59.9648 28.8129ZM44.0366 24.1355C44.7862 24.0419 45.4421 23.7613 45.8168 23.2936C46.2853 22.8258 46.4727 22.2645 46.4727 21.5161C46.4727 20.8613 46.2853 20.3 45.9105 19.8323C45.5358 19.3645 44.9736 19.1774 44.224 19.0839C43.7555 18.9903 42.5375 18.9903 40.3825 18.9903H37.7591V24.1355H40.7573C42.4438 24.229 43.5682 24.229 44.0366 24.1355ZM45.4421 28.2516C44.7862 28.0645 43.4745 27.971 41.4132 27.971H37.7591V33.9581H41.9753C43.5682 33.9581 44.5988 33.9581 45.0673 33.8645C45.7231 33.771 46.2853 33.4903 46.6601 32.929C47.0349 32.4613 47.316 31.8065 47.316 31.0581C47.316 30.4032 47.1286 29.8419 46.8475 29.3742C46.4727 28.8129 46.0042 28.4387 45.4421 28.2516ZM116.275 0.935486H6.83973C3.09193 0.935486 0 4.02258 0 7.76452V45.8387C0 49.5807 3.09193 52.5742 6.83973 52.5742H116.275C120.117 52.5742 123.115 49.5807 123.115 45.8387V7.76452C123.115 4.02258 120.117 0.935486 116.275 0.935486ZM25.9535 37.6065L23.9859 32.5548H15.0849L13.211 37.6065H8.43255L17.1462 15.3419H21.9246L30.8256 37.6065H25.9535ZM49.2835 36.4839C48.4403 37.0452 47.5033 37.4194 46.2853 37.5129C45.5358 37.6065 43.7555 37.6065 40.851 37.7H33.2617V15.3419H42.1627C43.9429 15.3419 45.2547 15.4355 46.0979 15.529C46.9412 15.7161 47.7844 15.9968 48.4403 16.4645C49.0962 16.9323 49.6583 17.5871 50.1268 18.3355C50.5953 19.0839 50.7827 20.0194 50.7827 20.9548C50.7827 21.9839 50.5016 22.9194 49.9394 23.8548C49.3772 24.6968 48.6277 25.3516 47.6907 25.8194C49.0962 26.1936 50.1268 26.8484 50.7827 27.8774C51.5322 28.8129 51.907 29.9355 51.907 31.2452C51.907 32.2742 51.6259 33.2097 51.1574 34.2387C50.7827 35.0806 50.1268 35.829 49.2835 36.4839ZM69.428 37.6065L67.4604 32.5548H58.5593L56.6855 37.6065H51.907L60.6206 15.3419H65.3991L74.3001 37.6065H69.428ZM94.6319 37.6065H90.1346V27.8774H81.3272V37.6065H76.8299V15.3419H81.3272V24.1355H90.1346V15.3419H94.6319V37.6065ZM115.432 19.0839H108.78V37.6065H104.282V19.0839H97.6301V15.3419H115.338V19.0839H115.432Z" fill="#D94347"/>
</svg>
