<svg xmlns="http://www.w3.org/2000/svg" width="50" height="50"><path fill="#22f200" d="M47.203 25.504c-.996-.863-2.148-1.496-3.34-1.934 3.34-1.226 5.727-4.62 5.063-7.351-.5-2.055-2.356-4.246-6.067-4.246-1.695 0-3.09.25-4.406.734 1.024-2.023 1.703-4.68 1.059-7.105-.48-1.801-1.899-4.176-5.918-5.254-2.692-.723-5.02-.325-6.926 1.187-1.691 1.344-2.746 3.375-3.352 5.336C21.215 2.125 17.59.926 16.046.926c-1.8 0-4.183 1.304-5.046 3.496-.895 2.266-.066 5.75 1.973 9.156-2.09-.875-3.97-1.125-5.407-1.125C3.801 12.453 0 14.836 0 20.156c0 1.867.66 3.383 1.965 4.5 1.191 1.02 2.765 1.54 4.293 1.774-2.422 1.828-4.008 4.449-3.395 7.093.535 2.309 2.825 3.688 6.121 3.688.746 0 2.012-.055 3.32-.3-1.265 1.78-2.1 4.038-2.1 5.823 0 1.887 1.405 7.266 7.651 7.266 2.532 0 4.551-.816 6.004-2.426 1.192-1.32 1.828-2.992 2.153-4.62 1.625 2.288 4.152 3.929 6.11 3.929.093 0 .183-.004.269-.012 1.812-.144 4.507-1.707 4.507-5.41 0-1.57-.109-2.926-.316-4.082 2.441 1.48 4.902 1.758 6.3 1.758 4.458 0 7.118-2.805 7.118-7.504 0-2.418-.969-4.54-2.797-6.13zm-.223-8.817c.395 1.625-1.433 4.305-4.132 5.122-1.246.375-2.317.66-3.477.84-1.965.3-6.234.964-7.98 1.238a6.933 6.933 0 00-.93-2.36c.676-.687 2.324-2.363 4.012-4.062 3.117-2.457 5.007-3.492 8.386-3.492 3.121 0 3.922 1.898 4.121 2.714zm-22.558 13.59c-2.809 0-5.094-2.27-5.094-5.062 0-2.79 2.285-5.063 5.094-5.063 2.812 0 5.098 2.274 5.098 5.063 0 2.793-2.286 5.062-5.098 5.062zM24.66 11c-.066-2.094.918-6.05 3.25-7.898 1.383-1.094 3.117-1.375 5.164-.825 2.489.668 4.004 1.961 4.504 3.836.734 2.766-.879 6.297-2.273 7.688-.668.664-1.41 1.41-2.153 2.156-.015.016-.03.023-.05.04-.028.023-.043.054-.067.081a936.09 936.09 0 00-3.86 3.91 7.035 7.035 0 00-3.613-1.73l-.91-6.547c-.015-.113-.039-.211-.054-.32.043-.121.066-.254.062-.391zm-11.8-5.844c.519-1.316 2.097-2.23 3.187-2.23 1.387 0 5.586 1.664 6.625 9.062l.867 6.227a7.13 7.13 0 00-2.75.945 142.129 142.129 0 01-2.82-2.363c-.035-.055-.063-.117-.11-.164-4.07-4.137-5.87-9.274-5-11.477zm-9.594 17.98C2.414 22.407 2 21.435 2 20.157c0-5.43 4.637-5.703 5.566-5.703 3.09 0 6.063 1.223 8.836 3.637.942.816 2.11 1.789 2.801 2.355a7.046 7.046 0 00-1.5 2.52c-.691.062-3.363.348-7.113 1.34-.203.054-.406.12-.61.187-1.597.223-4.878.215-6.714-1.355zm19.109 23.098c-1.07 1.188-2.55 1.766-4.52 1.766-5.5 0-5.652-5.21-5.652-5.266 0-1.609.996-3.937 2.317-5.418 1.195-1.336 4.632-5.21 5.707-6.421a7.066 7.066 0 003.343 1.328c.082.687.305 2.511.68 5.43-.012.081-.031.16-.023.245.136 1.325.406 5.832-1.852 8.336zm9.855-1.355c-1.554.125-5.367-2.61-5.8-5.969-.457-3.527-.739-5.789-.852-6.734a7.045 7.045 0 003.16-1.367c.887.765 2.86 2.464 4.918 4.261.02.032.024.067.047.098.445.594 1.195 2.195 1.195 6.293 0 3.164-2.64 3.414-2.668 3.418zm10.653-7.742c-1.434 0-4.2-.317-6.625-2.45-2.399-2.105-4.977-4.328-6.113-5.308a6.99 6.99 0 001.34-3.48c1.28-.204 4.48-.7 6.745-1.051.024-.004.04.004.063.004 2.113-.305 5.395.246 7.598 2.164C47.289 28.23 48 29.78 48 31.633c0 4.55-2.781 5.504-5.117 5.504z"/></svg>